<svg xmlns="http://www.w3.org/2000/svg" width="128" height="128" viewBox="0 0 128 128" role="img" aria-label="AIPocket icon">
  <rect width="128" height="128" rx="28" fill="#0F172A"/>
  <path d="M32 45c0-6.6 5.4-12 12-12h40c6.6 0 12 5.4 12 12v8H44c-6.6 0-12-5.4-12-12v4Z" fill="none" stroke="#FFFFFF" stroke-width="8" stroke-linecap="round" stroke-linejoin="round"/>
  <path d="M32 49h64v34c0 6.6-5.4 12-12 12H44c-6.6 0-12-5.4-12-12V49Z" fill="none" stroke="#FFFFFF" stroke-width="8" stroke-linejoin="round"/>
  <path d="M63 63l4 8 8 4-8 4-4 8-4-8-8-4 8-4 4-8Z" fill="#FFFFFF"/>
  <circle cx="91" cy="82" r="10" fill="#22C55E" stroke="#0F172A" stroke-width="5"/>
</svg>
