<svg xmlns="http://www.w3.org/2000/svg" width="760" height="520" viewBox="0 0 760 520" role="img" aria-label="AI Wallet provider management mock screenshot">
  <rect width="760" height="520" rx="28" fill="#f6f4ef"/>
  <rect x="220" y="28" width="320" height="464" rx="24" fill="#fbfaf7" stroke="#ded8ce"/>
  <text x="260" y="68" font-family="Inter, Arial" font-size="18" font-weight="850" fill="#24272a">Providers</text>
  <rect x="476" y="48" width="54" height="28" rx="14" fill="#f5f1ea" stroke="#e2dbd0"/><text x="503" y="66" text-anchor="middle" font-family="Inter, Arial" font-size="12" font-weight="850" fill="#4f5358">Add</text>
  <rect x="244" y="94" width="272" height="38" rx="14" fill="#fff8ed" stroke="#e8dfd2"/>
  <text x="380" y="118" text-anchor="middle" font-family="Inter, Arial" font-size="12" font-weight="850" fill="#5d5145">3 providers · 2 enabled · 48 models</text>
  <g transform="translate(244 150)">
    <rect width="272" height="82" rx="18" fill="#fff" stroke="#e3ded5"/>
    <rect x="12" y="12" width="38" height="38" rx="13" fill="#f3e6d8" stroke="#e2d2c1"/><text x="31" y="36" text-anchor="middle" font-family="Inter, Arial" font-size="13" font-weight="900" fill="#2f2418">O</text>
    <text x="62" y="28" font-family="Inter, Arial" font-size="13" font-weight="850" fill="#24272a">OpenAI</text>
    <rect x="214" y="14" width="48" height="20" rx="10" fill="#e8f7ed"/><text x="238" y="28" text-anchor="middle" font-family="Inter, Arial" font-size="9" font-weight="900" fill="#15562f">Enabled</text>
    <text x="62" y="46" font-family="Inter, Arial" font-size="11" fill="#73777d">OpenAI-compatible</text>
    <text x="62" y="66" font-family="Inter, Arial" font-size="10" fill="#5f646b">12 models · 5 requests/session · api.openai.com</text>
  </g>
  <g transform="translate(244 244)">
    <rect width="272" height="82" rx="18" fill="#fff" stroke="#e3ded5"/>
    <rect x="12" y="12" width="38" height="38" rx="13" fill="#eee9ff" stroke="#d9d0ff"/><text x="31" y="36" text-anchor="middle" font-family="Inter, Arial" font-size="13" font-weight="900" fill="#2f2418">A</text>
    <text x="62" y="28" font-family="Inter, Arial" font-size="13" font-weight="850" fill="#24272a">Anthropic</text>
    <rect x="214" y="14" width="48" height="20" rx="10" fill="#e8f7ed"/><text x="238" y="28" text-anchor="middle" font-family="Inter, Arial" font-size="9" font-weight="900" fill="#15562f">Enabled</text>
    <text x="62" y="46" font-family="Inter, Arial" font-size="11" fill="#73777d">Anthropic-compatible</text>
    <text x="62" y="66" font-family="Inter, Arial" font-size="10" fill="#5f646b">18 models · No limit · api.anthropic.com</text>
  </g>
  <rect x="244" y="344" width="272" height="120" rx="18" fill="#fffdf8" stroke="#e3ded5"/>
  <text x="264" y="374" font-family="Inter, Arial" font-size="14" font-weight="850" fill="#24272a">Add provider</text>
  <rect x="264" y="390" width="232" height="26" rx="10" fill="#fff" stroke="#d8d3ca"/><text x="276" y="407" font-family="Inter, Arial" font-size="10" fill="#85807a">Provider type · OpenRouter</text>
  <rect x="264" y="424" width="108" height="28" rx="12" fill="#f5f1ea" stroke="#e2dbd0"/><text x="318" y="442" text-anchor="middle" font-family="Inter, Arial" font-size="11" font-weight="850" fill="#4f5358">Check</text>
  <rect x="384" y="424" width="112" height="28" rx="12" fill="#e2761b"/><text x="440" y="442" text-anchor="middle" font-family="Inter, Arial" font-size="11" font-weight="850" fill="#fff">Save</text>
</svg>
